<?xml version="1.0" standalone="no"?>
<!DOCTYPE svg PUBLIC "-//W3C//DTD SVG 20010904//EN"
 "http://www.w3.org/TR/2001/REC-SVG-20010904/DTD/svg10.dtd">
<svg version="1.0" xmlns="http://www.w3.org/2000/svg"
 width="256.000000pt" height="256.000000pt" viewBox="0 0 256.000000 256.000000"
 preserveAspectRatio="xMidYMid meet">
<metadata>
Created by potrace 1.14, written by Peter Selinger 2001-2017
</metadata>
<g transform="translate(0.000000,256.000000) scale(0.100000,-0.100000)"
fill="#000000" stroke="none">
<path d="M934 2550 c-352 -31 -668 -248 -823 -564 -95 -192 -117 -359 -108
-816 6 -309 14 -372 68 -510 117 -303 384 -541 704 -627 l100 -27 390 0 c342
-1 401 1 475 17 382 83 685 372 787 752 l27 100 0 390 c1 342 -1 401 -17 475
-87 400 -389 703 -797 797 -76 17 -653 27 -806 13z m83 -590 c58 -35 66 -65
61 -225 -5 -160 -16 -193 -78 -230 -30 -17 -57 -20 -176 -23 -159 -5 -190 4
-224 61 -45 73 -7 216 82 313 50 54 93 81 166 105 75 24 129 24 169 -1z m681
6 c143 -38 249 -159 274 -312 9 -55 8 -67 -9 -101 -33 -64 -65 -74 -228 -71
-158 3 -192 15 -230 78 -18 31 -20 52 -20 192 0 153 1 157 25 183 44 48 94 56
188 31z m-324 -434 c21 -15 69 -60 107 -101 115 -125 115 -183 -1 -305 -107
-113 -143 -132 -232 -128 -32 2 -137 89 -202 169 -41 49 -46 61 -46 105 0 66
14 88 113 186 117 116 173 132 261 74z m-384 -474 c73 -37 84 -68 88 -233 4
-162 -7 -196 -71 -228 -32 -16 -46 -17 -100 -9 -88 14 -153 47 -218 112 -70
69 -102 145 -103 242 -1 58 2 70 24 93 37 40 53 44 200 44 122 1 140 -1 180
-21z m928 2 c49 -30 67 -80 54 -155 -21 -130 -91 -224 -205 -279 -94 -46 -178
-56 -224 -27 -57 36 -65 65 -61 230 3 135 5 148 27 180 41 57 86 71 241 71
118 0 139 -3 168 -20z"/>
</g>
</svg>
